<?xml version="1.0" encoding="utf-8"?>
<!-- Generator: Adobe Illustrator 26.3.1, SVG Export Plug-In . SVG Version: 6.00 Build 0)  -->
<svg version="1.1" id="Layer_1" xmlns="http://www.w3.org/2000/svg" xmlns:xlink="http://www.w3.org/1999/xlink" x="0px" y="0px"
	 viewBox="0 0 1800 120" style="enable-background:new 0 0 1800 120;" xml:space="preserve">
<style type="text/css">
	.st0{fill:#F7F7F7;}
	.st1{fill:#939598;}
	.st2{fill:#BCBEC0;}
</style>
<rect class="st0" width="1800" height="120"/>
<rect x="100" class="st1" width="3" height="120"/>
<rect x="200" class="st1" width="3" height="120"/>
<rect x="300" class="st1" width="3" height="120"/>
<rect x="400" class="st1" width="3" height="120"/>
<rect x="500" class="st1" width="3" height="120"/>
<rect x="600" class="st1" width="3" height="120"/>
<rect x="700" class="st1" width="3" height="120"/>
<rect x="800" class="st1" width="3" height="120"/>
<rect x="900" class="st1" width="3" height="120"/>
<rect x="1000" class="st1" width="3" height="120"/>
<rect x="1100" class="st1" width="3" height="120"/>
<rect x="1200" class="st1" width="3" height="120"/>
<rect x="1300" class="st1" width="3" height="120"/>
<rect x="1400" class="st1" width="3" height="120"/>
<rect x="1500" class="st1" width="3" height="120"/>
<rect x="1600" class="st1" width="3" height="120"/>
<rect x="1700" class="st1" width="3" height="120"/>
<rect y="9.5" class="st2" width="1800" height="1"/>
<rect y="29.5" class="st2" width="1800" height="1"/>
<rect y="49.5" class="st2" width="1800" height="1"/>
<rect y="69.5" class="st2" width="1800" height="1"/>
<rect y="89.5" class="st2" width="1800" height="1"/>
<rect y="109.5" class="st2" width="1800" height="1"/>
<rect class="st1" width="5" height="120"/>
</svg>
